<mxfile host="app.diagrams.net" modified="2024-05-31T08:58:35.798Z" agent="Mozilla/5.0 (Windows NT 10.0; Win64; x64) AppleWebKit/537.36 (KHTML, like Gecko) Chrome/125.0.0.0 Safari/537.36" etag="L7WZEv4XpNfYMJzunrKg" version="23.0.2" type="github">
  <diagram name="페이지-1" id="Gx4WFvY8kJrY9dI5wepk">
    <mxGraphModel dx="910" dy="707" grid="1" gridSize="10" guides="1" tooltips="1" connect="1" arrows="1" fold="1" page="1" pageScale="1" pageWidth="827" pageHeight="1169" math="0" shadow="0">
      <root>
        <mxCell id="0" />
        <mxCell id="1" parent="0" />
        <mxCell id="frAE3up38bg8fbmSGttq-1" value="이용자" style="shape=umlActor;verticalLabelPosition=bottom;verticalAlign=top;html=1;" vertex="1" parent="1">
          <mxGeometry x="80" y="350" width="30" height="60" as="geometry" />
        </mxCell>
        <mxCell id="frAE3up38bg8fbmSGttq-2" value="게시판 서비스" style="shape=umlFrame;whiteSpace=wrap;html=1;pointerEvents=0;width=110;height=30;" vertex="1" parent="1">
          <mxGeometry x="170" y="180" width="580" height="460" as="geometry" />
        </mxCell>
        <mxCell id="frAE3up38bg8fbmSGttq-3" value="회원가입" style="rounded=1;whiteSpace=wrap;html=1;arcSize=40;fontColor=#000000;fillColor=#ffffc0;strokeColor=#ff0000;" vertex="1" parent="1">
          <mxGeometry x="225" y="300" width="120" height="40" as="geometry" />
        </mxCell>
        <mxCell id="frAE3up38bg8fbmSGttq-16" style="rounded=0;orthogonalLoop=1;jettySize=auto;html=1;exitX=0;exitY=0.5;exitDx=0;exitDy=0;endArrow=none;endFill=0;" edge="1" parent="1" source="frAE3up38bg8fbmSGttq-5">
          <mxGeometry relative="1" as="geometry">
            <mxPoint x="110" y="370" as="targetPoint" />
          </mxGeometry>
        </mxCell>
        <mxCell id="frAE3up38bg8fbmSGttq-22" style="rounded=0;orthogonalLoop=1;jettySize=auto;html=1;entryX=0.5;entryY=1;entryDx=0;entryDy=0;exitX=1;exitY=0.5;exitDx=0;exitDy=0;dashed=1;" edge="1" parent="1" source="frAE3up38bg8fbmSGttq-5" target="frAE3up38bg8fbmSGttq-7">
          <mxGeometry relative="1" as="geometry" />
        </mxCell>
        <mxCell id="frAE3up38bg8fbmSGttq-5" value="게시판 보기" style="rounded=1;whiteSpace=wrap;html=1;arcSize=40;fontColor=#000000;fillColor=#ffffc0;strokeColor=#ff0000;" vertex="1" parent="1">
          <mxGeometry x="225" y="360" width="110" height="40" as="geometry" />
        </mxCell>
        <mxCell id="frAE3up38bg8fbmSGttq-17" style="rounded=0;orthogonalLoop=1;jettySize=auto;html=1;exitX=0;exitY=0.5;exitDx=0;exitDy=0;endArrow=none;endFill=0;" edge="1" parent="1" source="frAE3up38bg8fbmSGttq-6">
          <mxGeometry relative="1" as="geometry">
            <mxPoint x="110" y="370" as="targetPoint" />
          </mxGeometry>
        </mxCell>
        <mxCell id="frAE3up38bg8fbmSGttq-6" value="게시글 보기" style="rounded=1;whiteSpace=wrap;html=1;arcSize=40;fontColor=#000000;fillColor=#ffffc0;strokeColor=#ff0000;" vertex="1" parent="1">
          <mxGeometry x="360" y="585" width="120" height="40" as="geometry" />
        </mxCell>
        <mxCell id="frAE3up38bg8fbmSGttq-7" value="회원 로그인" style="rounded=1;whiteSpace=wrap;html=1;arcSize=40;fontColor=#000000;fillColor=#ffffc0;strokeColor=#ff0000;" vertex="1" parent="1">
          <mxGeometry x="340" y="200" width="120" height="40" as="geometry" />
        </mxCell>
        <mxCell id="frAE3up38bg8fbmSGttq-18" style="rounded=0;orthogonalLoop=1;jettySize=auto;html=1;exitX=0;exitY=0.5;exitDx=0;exitDy=0;entryX=1;entryY=0.5;entryDx=0;entryDy=0;endArrow=none;endFill=0;dashed=1;startArrow=classic;startFill=1;" edge="1" parent="1" source="frAE3up38bg8fbmSGttq-8" target="frAE3up38bg8fbmSGttq-7">
          <mxGeometry relative="1" as="geometry" />
        </mxCell>
        <mxCell id="frAE3up38bg8fbmSGttq-20" value="&amp;lt;Iinclude&amp;gt;" style="edgeLabel;html=1;align=center;verticalAlign=middle;resizable=0;points=[];" vertex="1" connectable="0" parent="frAE3up38bg8fbmSGttq-18">
          <mxGeometry x="-0.0143" y="2" relative="1" as="geometry">
            <mxPoint as="offset" />
          </mxGeometry>
        </mxCell>
        <mxCell id="frAE3up38bg8fbmSGttq-8" value="인증" style="rounded=1;whiteSpace=wrap;html=1;arcSize=40;fontColor=#000000;fillColor=#ffffc0;strokeColor=#ff0000;" vertex="1" parent="1">
          <mxGeometry x="600" y="200" width="120" height="40" as="geometry" />
        </mxCell>
        <mxCell id="frAE3up38bg8fbmSGttq-19" style="rounded=0;orthogonalLoop=1;jettySize=auto;html=1;exitX=0;exitY=0.5;exitDx=0;exitDy=0;endArrow=classic;endFill=1;dashed=1;" edge="1" parent="1" source="frAE3up38bg8fbmSGttq-9">
          <mxGeometry relative="1" as="geometry">
            <mxPoint x="460" y="220" as="targetPoint" />
          </mxGeometry>
        </mxCell>
        <mxCell id="frAE3up38bg8fbmSGttq-21" value="&amp;lt;extend&amp;gt;" style="edgeLabel;html=1;align=center;verticalAlign=middle;resizable=0;points=[];" vertex="1" connectable="0" parent="frAE3up38bg8fbmSGttq-19">
          <mxGeometry x="-0.0323" y="-1" relative="1" as="geometry">
            <mxPoint as="offset" />
          </mxGeometry>
        </mxCell>
        <mxCell id="frAE3up38bg8fbmSGttq-9" value="실패" style="rounded=1;whiteSpace=wrap;html=1;arcSize=40;fontColor=#000000;fillColor=#ffffc0;strokeColor=#ff0000;" vertex="1" parent="1">
          <mxGeometry x="600" y="280" width="120" height="40" as="geometry" />
        </mxCell>
        <mxCell id="frAE3up38bg8fbmSGttq-24" style="edgeStyle=orthogonalEdgeStyle;rounded=0;orthogonalLoop=1;jettySize=auto;html=1;exitX=0;exitY=0.5;exitDx=0;exitDy=0;entryX=0.5;entryY=1;entryDx=0;entryDy=0;dashed=1;" edge="1" parent="1" source="frAE3up38bg8fbmSGttq-10" target="frAE3up38bg8fbmSGttq-5">
          <mxGeometry relative="1" as="geometry" />
        </mxCell>
        <mxCell id="frAE3up38bg8fbmSGttq-10" value="게시판 정렬" style="rounded=1;whiteSpace=wrap;html=1;arcSize=40;fontColor=#000000;fillColor=#ffffc0;strokeColor=#ff0000;" vertex="1" parent="1">
          <mxGeometry x="310" y="410" width="120" height="40" as="geometry" />
        </mxCell>
        <mxCell id="frAE3up38bg8fbmSGttq-25" style="edgeStyle=orthogonalEdgeStyle;rounded=0;orthogonalLoop=1;jettySize=auto;html=1;exitX=0;exitY=0.5;exitDx=0;exitDy=0;entryX=0.25;entryY=1;entryDx=0;entryDy=0;dashed=1;" edge="1" parent="1" source="frAE3up38bg8fbmSGttq-11" target="frAE3up38bg8fbmSGttq-5">
          <mxGeometry relative="1" as="geometry" />
        </mxCell>
        <mxCell id="frAE3up38bg8fbmSGttq-11" value="게시판 검색" style="rounded=1;whiteSpace=wrap;html=1;arcSize=40;fontColor=#000000;fillColor=#ffffc0;strokeColor=#ff0000;" vertex="1" parent="1">
          <mxGeometry x="310" y="460" width="120" height="40" as="geometry" />
        </mxCell>
        <mxCell id="frAE3up38bg8fbmSGttq-27" style="edgeStyle=orthogonalEdgeStyle;rounded=0;orthogonalLoop=1;jettySize=auto;html=1;exitX=0;exitY=0.5;exitDx=0;exitDy=0;entryX=1;entryY=0;entryDx=0;entryDy=0;dashed=1;" edge="1" parent="1" source="frAE3up38bg8fbmSGttq-12" target="frAE3up38bg8fbmSGttq-6">
          <mxGeometry relative="1" as="geometry" />
        </mxCell>
        <mxCell id="frAE3up38bg8fbmSGttq-12" value="쓰기, 수정, 삭제" style="rounded=1;whiteSpace=wrap;html=1;arcSize=40;fontColor=#000000;fillColor=#ffffc0;strokeColor=#ff0000;" vertex="1" parent="1">
          <mxGeometry x="530" y="490" width="120" height="40" as="geometry" />
        </mxCell>
        <mxCell id="frAE3up38bg8fbmSGttq-26" style="edgeStyle=orthogonalEdgeStyle;rounded=0;orthogonalLoop=1;jettySize=auto;html=1;exitX=0.5;exitY=1;exitDx=0;exitDy=0;entryX=1;entryY=0.5;entryDx=0;entryDy=0;dashed=1;" edge="1" parent="1" source="frAE3up38bg8fbmSGttq-13" target="frAE3up38bg8fbmSGttq-6">
          <mxGeometry relative="1" as="geometry" />
        </mxCell>
        <mxCell id="frAE3up38bg8fbmSGttq-13" value="댓글&lt;br&gt;쓰기, 수정, 삭제" style="rounded=1;whiteSpace=wrap;html=1;arcSize=40;fontColor=#000000;fillColor=#ffffc0;strokeColor=#ff0000;" vertex="1" parent="1">
          <mxGeometry x="530" y="540" width="120" height="40" as="geometry" />
        </mxCell>
        <mxCell id="frAE3up38bg8fbmSGttq-14" style="rounded=0;orthogonalLoop=1;jettySize=auto;html=1;exitX=0;exitY=0.5;exitDx=0;exitDy=0;entryX=1;entryY=0.3333333333333333;entryDx=0;entryDy=0;entryPerimeter=0;strokeColor=default;endArrow=none;endFill=0;" edge="1" parent="1" source="frAE3up38bg8fbmSGttq-3" target="frAE3up38bg8fbmSGttq-1">
          <mxGeometry relative="1" as="geometry" />
        </mxCell>
        <mxCell id="frAE3up38bg8fbmSGttq-15" style="rounded=0;orthogonalLoop=1;jettySize=auto;html=1;exitX=0;exitY=0.5;exitDx=0;exitDy=0;endArrow=none;endFill=0;" edge="1" parent="1" source="frAE3up38bg8fbmSGttq-7">
          <mxGeometry relative="1" as="geometry">
            <mxPoint x="110" y="370" as="targetPoint" />
          </mxGeometry>
        </mxCell>
        <mxCell id="frAE3up38bg8fbmSGttq-23" style="rounded=0;orthogonalLoop=1;jettySize=auto;html=1;exitX=0.75;exitY=0;exitDx=0;exitDy=0;entryX=0.75;entryY=1;entryDx=0;entryDy=0;dashed=1;" edge="1" parent="1" source="frAE3up38bg8fbmSGttq-6" target="frAE3up38bg8fbmSGttq-7">
          <mxGeometry relative="1" as="geometry" />
        </mxCell>
      </root>
    </mxGraphModel>
  </diagram>
</mxfile>
